<svg width="1236" height="799" viewBox="0 0 1236 799" fill="none" xmlns="http://www.w3.org/2000/svg">
<g clip-path="url(#clip0_19_15)">
<path d="M770.567 34.372C741.875 96.096 747.301 134.794 786.842 150.466C846.155 173.974 987.189 183.377 1046.14 234.372C1105.09 285.366 1284.84 245.944 1315.58 158.422C1346.32 70.9 1401.67 -64 1109.81 -64C915.232 -64 802.153 -31.21 770.567 34.372Z" fill="#FFFA72"/>
<path d="M292.788 156.242C212.45 329.069 227.643 437.423 338.358 481.305C504.434 547.127 899.329 573.456 1064.39 716.242C1229.45 859.025 1732.75 748.643 1818.82 503.582C1904.9 258.52 2059.87 -119.2 1242.66 -119.2C697.849 -119.2 381.228 -27.388 292.788 156.242Z" fill="#D6F2FF"/>
<path d="M332.602 146.086C256.569 309.654 270.947 412.204 375.731 453.735C532.91 516.031 906.651 540.949 1062.87 676.086C1219.09 811.22 1695.42 706.752 1776.88 474.818C1858.35 242.885 2005.02 -114.6 1231.59 -114.6C715.965 -114.6 416.305 -27.7066 332.602 146.086Z" fill="#C7E1F3"/>
<path d="M372.418 135.93C300.688 290.24 314.253 386.985 413.105 426.165C561.388 484.935 913.973 508.443 1061.35 635.93C1208.73 763.415 1658.1 664.86 1734.95 446.055C1811.8 227.25 1950.17 -110 1220.52 -110C734.08 -110 451.383 -28.025 372.418 135.93Z" fill="#B8CFE6"/>
<path d="M412.232 125.774C344.806 270.826 357.557 361.766 450.479 398.595C589.864 453.839 921.294 475.936 1059.83 595.774C1198.36 715.61 1620.77 622.968 1693.01 417.292C1765.25 211.615 1895.32 -105.4 1209.45 -105.4C752.195 -105.4 486.459 -28.3434 412.232 125.774Z" fill="#A9BEDA"/>
<path d="M452.048 115.618C388.925 251.411 400.862 336.547 487.853 371.025C618.341 422.743 928.616 443.429 1058.31 555.618C1188 667.805 1583.44 581.077 1651.07 388.528C1718.7 195.98 1840.47 -100.8 1198.38 -100.8C770.311 -100.8 521.537 -28.662 452.048 115.618Z" fill="#9AADCE"/>
<path d="M491.862 105.463C433.044 231.997 444.167 311.328 525.226 343.455C646.818 391.647 935.937 410.923 1056.79 515.463C1177.64 620 1546.12 539.185 1609.14 359.765C1672.16 180.345 1785.62 -96.2 1187.31 -96.2C788.426 -96.2 556.614 -28.9805 491.862 105.463Z" fill="#8B9BC1"/>
<path d="M531.677 95.3067C477.162 212.582 487.472 286.109 562.6 315.885C675.294 360.551 943.259 378.416 1055.27 475.307C1167.27 572.195 1508.79 497.293 1567.2 331.002C1625.61 164.71 1730.77 -91.6001 1176.23 -91.6001C806.541 -91.6001 591.691 -29.2991 531.677 95.3067Z" fill="#7D8AB5"/>
<path d="M571.492 85.151C521.281 193.168 530.777 260.89 599.974 288.316C703.771 329.455 950.581 345.91 1053.75 435.151C1156.91 524.391 1471.47 455.402 1525.26 302.238C1579.06 149.075 1675.92 -87 1165.16 -87C824.656 -87 626.768 -29.6175 571.492 85.151Z" fill="#6E79A9"/>
<path d="M611.307 74.9953C565.4 173.754 574.081 235.671 637.347 260.746C732.248 298.359 957.902 313.403 1052.23 394.995C1146.55 476.586 1434.14 413.511 1483.33 273.475C1532.51 133.44 1621.07 -82.3999 1154.09 -82.3999C842.771 -82.3999 661.845 -29.9359 611.307 74.9953Z" fill="#5F679C"/>
<path d="M651.122 64.8394C609.519 154.339 617.387 210.451 674.721 233.176C760.725 267.262 965.224 280.897 1050.7 354.839C1136.18 428.781 1396.82 371.619 1441.39 244.712C1485.96 117.805 1566.22 -77.8 1143.02 -77.8C860.887 -77.8 696.922 -30.2545 651.122 64.8394Z" fill="#505690"/>
<path d="M690.937 54.6836C653.638 134.925 660.691 185.232 712.095 205.606C789.201 236.166 972.546 248.39 1049.18 314.684C1125.82 380.976 1359.49 329.727 1399.45 215.949C1439.42 102.17 1511.37 -73.2 1131.95 -73.2C879.002 -73.2 731.999 -30.573 690.937 54.6836Z" fill="#414584"/>
<path d="M730.752 44.5277C697.756 115.51 703.996 160.013 749.468 178.036C817.678 205.07 979.867 215.883 1047.66 274.528C1115.45 333.171 1322.16 287.835 1357.52 187.185C1392.87 86.5349 1456.52 -68.6001 1120.88 -68.6001C897.117 -68.6001 767.076 -30.8916 730.752 44.5277Z" fill="#323377"/>
</g>
<defs>
<clipPath id="clip0_19_15">
<rect width="1236" height="799" fill="white"/>
</clipPath>
</defs>
</svg>
