<svg xmlns="http://www.w3.org/2000/svg" version="1.1" xmlns:xlink="http://www.w3.org/1999/xlink" xmlns:svgjs="http://svgjs.dev/svgjs" width="700" height="500" preserveAspectRatio="none" viewBox="0 0 700 500"><g mask="url(&quot;#SvgjsMask1047&quot;)" fill="none"><rect width="700" height="500" x="0" y="0" fill="rgba(50, 51, 119, 1)"></rect><path d="M0,321.53C63.815,329.101,134.628,328.071,186.183,289.707C237.017,251.879,244.941,181.394,267.756,122.28C289.109,66.954,319.259,13.823,315.501,-45.362C311.581,-107.092,293.58,-173.498,246.431,-213.534C200.588,-252.461,131.82,-235.572,73.626,-250.748C17.816,-265.302,-31.024,-307.338,-88.333,-300.834C-149.527,-293.889,-214.083,-266.156,-247.339,-214.32C-279.964,-163.468,-246.093,-96.351,-257.574,-37.034C-269.931,26.811,-337.881,83.162,-316.825,144.689C-296.079,205.309,-215.75,217.43,-159.803,248.658C-107.626,277.782,-59.339,314.49,0,321.53" fill="#28295f"></path><path d="M700 757.8299999999999C747.524 759.404 776.154 705.427 811.784 673.939 841.845 647.373 872.793 622.87 892.351 587.844 913.155 550.587 929.29 509.96 927.144 467.342 924.884 422.473 910.509 377.01 880.068 343.97 850.008 311.344 804.9300000000001 300.087 762.167 288.279 720.029 276.644 675.916 262.849 634.256 276.095 592.931 289.235 561.765 323.342 537.941 359.575 516.061 392.851 515.771 433.56600000000003 505.43 472.025 493.404 516.747 453.23199999999997 561.785 472.209 604.029 491.16499999999996 646.226 554.539 640.8009999999999 592.877 666.687 632.5360000000001 693.4639999999999 652.173 756.246 700 757.8299999999999" fill="#3c3d8f"></path></g><defs><mask id="SvgjsMask1047"><rect width="700" height="500" fill="#ffffff"></rect></mask></defs></svg>